<?xml version="1.0" encoding="UTF-8" standalone="no"?>
<!-- Created with Inkscape (http://www.inkscape.org/) -->

<svg
   version="1.1"
   id="svg1"
   width="1080"
   height="1080"
   viewBox="0 0 1080 1080"
   sodipodi:docname="MANI QMS.svg"
   inkscape:export-filename="MANI fuxia QMS.png"
   inkscape:export-xdpi="96"
   inkscape:export-ydpi="96"
   inkscape:version="1.3 (0e150ed6c4, 2023-07-21)"
   xmlns:inkscape="http://www.inkscape.org/namespaces/inkscape"
   xmlns:sodipodi="http://sodipodi.sourceforge.net/DTD/sodipodi-0.dtd"
   xmlns="http://www.w3.org/2000/svg"
   xmlns:svg="http://www.w3.org/2000/svg">
  <defs
     id="defs1" />
  <sodipodi:namedview
     id="namedview1"
     pagecolor="#ffffff"
     bordercolor="#000000"
     borderopacity="0.25"
     inkscape:showpageshadow="2"
     inkscape:pageopacity="0.0"
     inkscape:pagecheckerboard="0"
     inkscape:deskcolor="#d1d1d1"
     inkscape:zoom="0.73611111"
     inkscape:cx="540"
     inkscape:cy="540"
     inkscape:window-width="1920"
     inkscape:window-height="991"
     inkscape:window-x="-9"
     inkscape:window-y="-9"
     inkscape:window-maximized="1"
     inkscape:current-layer="g1" />
  <g
     inkscape:groupmode="layer"
     inkscape:label="Image"
     id="g1">
    <path
       style="fill:#ff00ff"
       d="M 426.15895,767.39192 C 421.19721,764.91938 416,759.22843 416,756.26787 416,755.35745 413.89873,755 408.54692,755 h -7.45309 l -1.666,3.51084 c -2.07401,4.37067 -4.22337,4.95366 -15.16281,4.11279 -13.30634,-1.0228 -17.25831,-2.25878 -21.26502,-6.65061 -3.20891,-3.51734 -4.3875,-4.03396 -14.17096,-6.21164 l -10.67096,-2.37523 -5.67993,2.96341 c -10.91246,5.6934 -20.82383,4.35739 -29.10437,-3.92314 -8.0218,-8.02181 -9.3415,-20.35526 -3.21219,-30.02017 1.64489,-2.59372 2.77109,-5.4337 2.50266,-6.31105 -2.09702,-6.85418 -4.67433,-12.04977 -7.24007,-14.5952 -4.38591,-4.35119 -8.76711,-18.01855 -7.53454,-23.50433 0.74896,-3.33336 0.58431,-4.41288 -0.95501,-6.26171 l -1.85998,-2.23396 -2.40536,2.95338 -2.40536,2.95337 -10.38196,-5.30698 c -12.45015,-6.36419 -12.58374,-6.46543 -13.39314,-10.15064 -0.50718,-2.30918 -1.41237,-3.12073 -4.36876,-3.9168 -9.29003,-2.50154 -9.63223,-2.46786 -13.87563,1.3658 -2.19276,1.98103 -4.87503,3.60187 -5.9606,3.60187 -2.63097,0 -13.21431,-6.91944 -19.32321,-12.63359 -3.23742,-3.02823 -5.12204,-5.70986 -5.52595,-7.8629 -0.51335,-2.73639 -1.85458,-4.05391 -8.2532,-8.10728 -14.37571,-9.10665 -19.07886,-16.41248 -17.90257,-27.80966 0.68471,-6.63425 2.66033,-10.55936 7.84955,-15.59532 10.42805,-10.12009 27.53003,-10.48671 37.55289,-0.80504 l 3.18135,3.07305 6.5442,-1.77143 c 5.76007,-1.55918 6.76853,-2.20377 8.4164,-5.37963 2.21374,-4.26646 13.40364,-12.30894 20.40088,-14.66266 4.39986,-1.48003 4.92912,-1.46806 7.70947,0.17434 2.87741,1.69973 3.06324,1.69329 5.14222,-0.17821 4.72997,-4.25793 7.92109,-10.15174 7.75747,-14.32756 -0.11642,-2.97123 0.58417,-5.10908 2.65228,-8.09336 3.35186,-4.83673 9.24016,-10.31047 13.41221,-12.46791 2.85711,-1.47747 3.12651,-1.44309 5.07434,0.64767 l 2.05705,2.20797 6.02493,-5.95424 c 3.31371,-3.27483 6.27868,-6.95781 6.58882,-8.1844 0.77393,-3.06087 -3.04759,-15.17121 -6.7939,-21.52976 -1.69803,-2.88204 -4.83493,-7.32897 -6.97088,-9.88206 -4.56072,-5.4514 -3.86272,-6.22626 4.70185,-5.21967 2.98098,0.35036 5.41996,0.30367 5.41996,-0.10374 0,-0.40741 -2.01895,-2.98631 -4.48655,-5.73088 -2.59235,-2.88331 -4.96247,-6.74511 -5.6138,-9.14692 -1.63221,-6.01892 -0.43334,-15.49082 3.06723,-24.23307 4.04552,-10.10321 20.77625,-35.01394 22.41542,-33.37478 0.29489,0.2949 -0.0986,2.99202 -0.8744,5.99361 -3.53491,13.67645 -3.72634,27.99228 -0.4882,36.50924 2.53688,6.6725 0.21309,11.04932 -6.4396,12.1289 -3.05902,0.49642 -4.39596,0.0724 -8.05309,-2.55393 -4.13838,-2.97196 -4.42027,-3.03845 -5.00958,-1.18168 -1.9671,6.19775 5.76307,18.70794 16.6545,26.95296 9.66182,7.31419 13.43777,12.22791 20.04228,26.08141 5.13654,10.77433 6.09689,12.21601 7.02851,10.5513 0.59348,-1.06049 1.38497,-10.50125 1.75888,-20.97946 0.5387,-15.09639 1.03709,-19.74044 2.4008,-22.37094 1.1824,-2.28075 4.90938,-5.37888 11.90928,-9.89982 13.00912,-8.40203 17.51907,-11.95391 19.67063,-15.49185 1.48617,-2.44382 1.90143,-2.63371 2.96282,-1.35481 1.06534,1.28365 3.51609,0.34996 17.89463,-6.81751 9.16313,-4.56768 22.06024,-10.70514 28.66024,-13.6388 12.64274,-5.61962 23.49169,-12.04828 27.24295,-16.1431 1.23363,-1.34661 3.09692,-4.20404 4.14066,-6.34985 l 1.8977,-3.90146 2.68503,8.45841 c 2.60708,8.21284 2.74736,11.02769 0.88812,17.821 -0.62795,2.29443 -0.51982,2.34169 3.74947,1.63853 2.41784,-0.39822 7.77107,-1.79314 11.89607,-3.09981 9.88684,-3.13185 10,-3.11581 10,1.4172 0,12.20621 -6.03933,20.25952 -21.09898,28.13501 -5.67527,2.96789 -15.70884,9.38418 -22.29683,14.25841 l -11.97817,8.86225 -5.33674,21.21291 C 440.35408,515.95419 438.07572,527.075 438.22627,529 l 0.27373,3.5 8.5,2.20098 c 4.675,1.21055 9.12959,2.11055 9.89908,2 1.44436,-0.20748 3.45022,-6.67147 9.21658,-29.70098 3.23885,-12.93522 4.14076,-15 6.5521,-15 1.82318,0 1.4795,2.07147 -4.41245,26.59565 -2.52326,10.5026 -4.30207,19.8401 -3.95291,20.75 0.34915,0.90989 1.49966,1.65435 2.55667,1.65435 1.56028,0 2.33978,-1.54896 4.14348,-8.23353 2.12347,-7.8697 2.89263,-11.51826 6.48594,-30.76647 2.36619,-12.67495 6.19154,-19.72128 14.7865,-27.2369 12.28465,-10.74195 22.66313,-20.99278 23.30648,-23.01979 1.23697,-3.89734 2.6329,0.10976 2.75681,7.91356 0.11298,7.11534 -0.40507,9.37423 -5.58283,24.34313 -7.05773,20.40385 -8.38203,28.31389 -9.7104,58 -1.81542,40.57079 -2.58593,42.0374 -33.84703,64.42493 -8.08391,5.78927 -18.20819,14.05725 -22.4984,18.3733 l -7.80037,7.84736 1.04282,6.42721 c 0.57355,3.53496 1.04622,9.89887 1.05038,14.14202 0.007,6.85588 -0.22993,7.84191 -2.12547,8.85637 -2.12968,1.13977 -2.12881,1.14491 0.55079,3.28518 3.33313,2.66226 4.52712,7.52879 4.55837,18.57918 0.02,7.06187 -0.29976,8.78002 -1.96343,10.55092 -1.6617,1.7688 -1.82944,2.66575 -1.02383,5.47476 0.52991,1.84767 1.26434,7.34502 1.63207,12.21633 l 0.66861,8.85694 4.11645,1.8209 C 456.88274,727.04741 462,735.2641 462,746.28872 c 0,6.51813 -0.34706,7.89236 -3.00768,11.90915 -3.08011,4.65012 -8.3062,8.87038 -13.30742,10.74624 -5.24517,1.96736 -13.83311,1.28467 -19.52595,-1.55219 z m 23.05489,-5.06205 c 10.78463,-7.74962 12.4562,-20.14854 3.98235,-29.53942 C 450.121,729.38247 444.79952,726 442.51307,726 c -1.65037,0 1.2406,5.89442 4.04988,8.25734 6.22113,5.23266 6.37245,16.19816 0.30179,21.86901 -6.20764,5.79881 -13.51137,6.08545 -20.78597,0.81575 -6.07391,-4.39992 -8.70583,-1.80201 -3.32877,3.28577 4.40155,4.16474 9.03786,5.74737 15.96384,5.44934 5.09688,-0.21933 6.98428,-0.82102 10.5,-3.34734 z M 393,756.03518 c 0,-0.53065 -0.84706,-1.41814 -1.88235,-1.97222 -3.41821,-1.82937 -3.40447,-4.17182 0.0454,-7.73115 1.77613,-1.83249 3.02855,-3.33922 2.78316,-3.34827 -0.24539,-0.009 -5.17014,-0.87258 -10.94388,-1.91896 -5.77373,-1.04637 -10.66316,-1.73705 -10.86538,-1.53482 -0.20222,0.20222 0.87738,1.43863 2.39913,2.74758 2.23416,1.92174 2.63623,2.90015 2.08854,5.0823 -0.37304,1.48632 -2.07893,3.5542 -3.79086,4.59529 l -3.11261,1.89289 3.88945,1.00019 c 6.96638,1.79144 7.81785,1.91854 13.63944,2.03599 3.1625,0.0638 5.75,-0.31817 5.75,-0.84882 z M 443.84025,753.75 c 3.65411,-2.9276 4.06164,-3.70391 4.10814,-7.82569 0.0401,-3.55728 -0.4738,-5.06928 -2.30908,-6.79343 l -2.36069,-2.21775 -1.26063,3.04343 c -1.4002,3.38039 -4.86167,4.14165 -7.01799,1.54344 -2.63724,-3.17768 -5.90289,-1.05558 -3.96057,2.57368 0.93284,1.74303 0.76509,2.50549 -0.95375,4.33512 -2.83105,3.01351 -2.6206,5.23713 0.66432,7.01923 4.52431,2.45448 8.58134,1.93441 13.09025,-1.67803 z m -20.90846,-3.80446 c 3.78055,-1.71509 4.22139,-2.20734 3,-3.34981 -1.15404,-1.07947 -4.23087,-1.16509 -15.86081,-0.44137 C 396.80265,746.98004 393,747.85377 393,750.07675 c 0,0.78807 6.02292,1.31482 19.5,1.70543 4.17624,0.12104 7.34709,-0.43723 10.43179,-1.83664 z m -92.78467,-3.0503 c 3.86417,-2.75153 2.64486,-3.6161 -6.13062,-4.34698 -7.28642,-0.60687 -11.59164,-2.79408 -14.7631,-7.50021 -1.86764,-2.77138 -2.2534,-4.7023 -2.2534,-11.27927 0,-8.81421 -1.00269,-9.64059 -4.47777,-3.69043 -2.70314,4.62841 -2.56252,12.99879 0.31269,18.61372 2.28311,4.45862 6.74722,8.34604 11.66508,10.15815 4.30283,1.58548 12.03103,0.6199 15.64712,-1.95498 z M 365,747.06739 c 0,-2.16248 -0.0339,-2.1767 -13.09639,-5.4896 C 334.20768,737.08976 328,736.45453 328,739.13174 c 0,1.24276 3.38177,2.44259 16.43178,5.82988 C 362.29665,749.59866 365,749.87543 365,747.06739 Z m 8,-1.03221 c 0,-1.46272 -3.95084,-3.26802 -5.69076,-2.60035 -1.23855,0.47527 -1.29629,0.87585 -0.29942,2.077 1.36541,1.64522 5.99018,2.04928 5.99018,0.52335 z m 40.41787,-3.84642 c 3.48681,-0.61941 4.06924,-1.15008 5.29361,-4.82319 0.76361,-2.29083 3.33457,-6.05758 5.77816,-8.46567 l 4.40243,-4.33846 -1.8702,-3.03072 c -2.47276,-4.00717 -3.54219,-13.8847 -2.08798,-19.28521 1.02811,-3.81811 0.91995,-4.52418 -1.11455,-7.27599 -2.78568,-3.76784 -3.73992,-12.19823 -2.58429,-22.83146 0.55123,-5.07197 0.46693,-8.44549 -0.2509,-10.04142 l -1.08102,-2.40335 -1.57624,2.2504 c -4.2561,6.07643 -12.54007,34.67069 -13.81468,47.68492 C 403.46287,720.34266 403.71365,720 396.92203,720 386.43732,720 365.8528,714.49184 354,708.51461 345.65773,704.3077 334.64601,696.39805 329.55664,690.9571 327.05049,688.27782 325,685.71801 325,685.26863 c 0,-0.44938 2.07079,-4.40616 4.60176,-8.79284 30.07362,-52.12374 37.23527,-67.35732 36.15827,-76.91244 -0.81311,-7.2139 -3.76184,-11.48523 -19.20064,-27.81274 -8.28266,-8.75945 -16.2467,-17.67973 -17.69785,-19.82284 -1.45115,-2.14311 -3.41212,-7.05359 -4.35772,-10.91217 -0.94559,-3.85858 -2.08357,-7.0156 -2.52883,-7.0156 -0.44527,0 -1.58267,2.1375 -2.52757,4.75 -3.43189,9.4887 -5.6967,13.28878 -10.4866,17.59532 -5.65618,5.08539 -11.07785,7.93074 -13.40792,7.03661 -1.12096,-0.43016 -3.58675,1.25406 -7.90036,5.3962 -5.35773,5.14476 -6.14987,6.34843 -5.44028,8.26663 0.45678,1.2348 0.56339,3.08675 0.2369,4.11543 C 281.08615,585.45465 261.15117,599 256.19392,599 c -1.02991,0 -3.3101,-1.57975 -5.0671,-3.51055 -3.65236,-4.01368 -4.08839,-3.99694 -15.62682,0.59985 -6.87031,2.73706 -7.0137,2.8686 -7.73928,7.09971 -0.4066,2.37105 -1.84936,6.45198 -3.20614,9.06874 l -2.46686,4.75774 5.99446,3.026 c 5.66361,2.85898 10.78355,7.39398 19.00814,16.83652 4.50683,5.17423 8.08093,5.45928 14.06838,1.12199 4.65358,-3.37104 7.63734,-3.68888 13.8969,-1.48038 7.14801,2.52196 10.79099,6.03409 14.35348,13.8379 3.69765,8.0999 4.40102,8.80844 10.469,10.54591 5.81868,1.6661 9.36484,5.77612 13.20653,15.30646 3.61657,8.97189 3.9034,12.04089 1.3854,14.82325 -2.28439,2.52422 -3.22464,2.47605 -5.52645,-0.28314 -1.04548,-1.25323 -1.89176,-1.68361 -1.91029,-0.97148 -0.0462,1.7753 5.50287,12.59162 7.16942,13.97474 0.75124,0.62347 4.13845,1.58009 7.52713,2.12583 13.78878,2.22061 21.16018,10.01589 22.21876,23.49643 l 0.55142,7.02211 8.76245,2.12925 8.76246,2.12925 2.53843,-3.32807 C 367.09977,734.00264 367.10874,734 375.88411,734 c 13.12187,0 19.5756,1.5706 22.89269,5.57124 2.92851,3.53199 6.20044,4.11694 14.64107,2.61752 z m 14.93832,-3.76978 c 2.1782,-2.62084 2.7022,-4.05021 2.20743,-6.0215 -0.60276,-2.40161 -0.80528,-2.48407 -2.85619,-1.16301 -2.59486,1.67145 -6.13086,8.27139 -5.22059,9.74423 1.09931,1.77873 2.9256,0.98226 5.86935,-2.55972 z m -102.7242,-3.08064 c 1.79073,-4.28582 1.17721,-9.1241 -1.58723,-12.51698 -1.71284,-2.10222 -1.87503,-2.13808 -1.71807,-0.37985 0.21276,2.38345 -3.59109,4.5234 -8.07669,4.54375 -2.43663,0.011 -3.24113,0.45271 -3.21456,1.76474 0.0905,4.47095 6.14335,10.23017 10.76559,10.24341 1.7067,0.005 2.69618,-0.93916 3.83096,-3.65507 z M 438.61673,722.75 c -0.37765,-7.8375 -1.0878,-16.00082 -1.57811,-18.14071 -0.95661,-4.17502 -3.50083,-7.48797 -4.76481,-6.2045 -1.14244,1.16005 -0.58621,20.76682 0.77676,27.38055 1.3473,6.53767 3.48539,11.21466 5.12679,11.21466 0.81412,0 0.93581,-3.94707 0.43937,-14.25 z m -98.80633,7.4405 c 0.63347,-8.79469 -7.02165,-18.0139 -16.42207,-19.77743 -6.71381,-1.25952 -6.64217,1.87227 0.14092,6.15982 4.80212,3.03539 7.47075,7.99133 7.47075,13.87402 0,3.6226 1.25393,4.50202 6,4.20798 2.2029,-0.13648 2.53689,-0.66703 2.8104,-4.46439 z m -23.1622,-8.2387 c 0.66874,-0.66874 0.74538,-2.38832 0.21172,-4.75 -0.46007,-2.03599 -1.15224,-5.5018 -1.53815,-7.7018 l -0.70166,-4 -0.62812,4 c -0.51653,3.28946 -0.7713,3.64473 -1.43422,2 C 306.42216,696.27737 302,690.81256 302,698.45295 c 0,3.96962 1.45978,7.72934 4.71204,12.13607 1.25387,1.69895 2.7969,4.62395 3.42895,6.5 1.9141,5.68134 4.07433,7.29566 6.50721,4.86278 z M 399.54998,711.25 c 3.59532,-21.04634 8.42304,-38.22821 13.69768,-48.75 5.38888,-10.7497 19.05352,-29.78652 28.25234,-39.35961 8.44488,-8.78847 19.16305,-17.47737 32.91342,-26.68192 7.68756,-5.14609 16.30351,-13.0104 18.13582,-16.55369 3.21014,-6.20773 4.47677,-14.81423 5.45907,-37.09335 1.49642,-33.93942 3.22214,-43.78778 11.60041,-66.20148 2.44449,-6.53952 4.32004,-12.00964 4.1679,-12.15582 -0.74734,-0.71805 -22.54088,18.56777 -24.91247,22.04587 -3.42077,5.01679 -5.58475,11.79317 -7.38868,23.13716 -0.77516,4.87456 -2.84143,15.27534 -4.59173,23.11284 -2.68087,12.00447 -3.47171,14.25 -5.01862,14.25 -1.00996,0 -7.13027,-1.55086 -13.6007,-3.44635 -6.47043,-1.8955 -17.83942,-5.05314 -25.26442,-7.01698 -21.45634,-5.675 -35.32325,-13.37606 -39.34447,-21.85016 -0.85253,-1.79657 -2.02724,-6.39849 -2.61046,-10.2265 -1.74272,-11.43831 -1.58521,-11.13086 -6.06977,-11.84797 -2.22851,-0.35635 -4.31385,-1.33071 -4.63409,-2.16524 -0.38715,-1.00889 2.76753,-4.96034 9.41438,-11.79215 10.11367,-10.39512 13.83342,-15.67732 12.84815,-18.24491 -1.21012,-3.15353 -5.94512,-1.26414 -19.08996,7.61738 -20.57264,13.90023 -19.08818,11.70449 -19.93546,29.48757 -0.67846,14.23976 -1.9854,26.93827 -3.16107,30.71351 -1.01434,3.2572 15.53486,18.73971 41.08275,38.43474 22.48178,17.33135 32.36601,23.36129 38.21788,23.3151 7.40401,-0.0584 20.84737,-10.43773 31.97267,-24.68528 7.38061,-9.45195 9.35665,-9.44419 5.02393,0.0197 -4.84554,10.58404 -22.27667,25.90038 -32.63092,28.67203 -6.0155,1.61024 -11.08374,0.0794 -21.6039,-6.52536 -9.88724,-6.20739 -28.30714,-19.94386 -37.69931,-28.11389 C 354.1561,532.70593 353.54783,532.05786 347.85105,520 c -7.54583,-15.97158 -8.35663,-17.36319 -13.23416,-22.71439 -4.71639,-5.17441 -10.69243,-9.35466 -15.36689,-10.74916 -3.04224,-0.90757 -2.98283,1.53736 0.16801,6.91386 4.26944,7.28525 6.42688,15.72465 8.07953,31.60531 1.78111,17.11502 2.1567,19.20112 4.18001,23.21668 0.76828,1.52477 8.37749,10.06497 16.90936,18.97824 21.42289,22.38055 25.02543,30.09075 20.42711,43.71841 -3.28089,9.7233 -14.5288,32.19896 -26.94407,53.83986 -8.81187,15.35985 -10.87951,19.67852 -10.10991,21.11653 1.71651,3.20733 11.87393,11.83452 17.55891,14.91363 13.50171,7.31284 34.67784,13.91662 45.18574,14.09118 4.0949,0.068 4.22141,-0.0281 4.84529,-3.68015 z m 38.10494,-17.70687 C 437.32924,692.69441 436.3039,692 435.3764,692 c -1.53891,0 -1.52762,0.17542 0.12915,2.00613 1.98964,2.19852 3.08052,1.96353 2.14937,-0.463 z M 301.43555,688.5 c 1.41416,-3.38455 3.79225,-4.55846 5.06445,-2.5 0.33992,0.55 1.31526,1 2.16743,1 1.1858,0 1.39235,-0.64533 0.88022,-2.75 -0.98757,-4.05849 -6.71696,-16.25 -7.63667,-16.25 -1.43096,0 -2.41098,2.4389 -2.41098,6 0,3.07481 -0.33408,3.53844 -2.75,3.81642 -1.55162,0.17854 -2.75,0.93149 -2.75,1.72785 0,1.32323 5.0899,12.45573 5.6949,12.45573 0.15304,0 0.93634,-1.575 1.74065,-3.5 z m 128.98852,-1.72343 c 1.65366,-3.31691 4.19116,-3.35373 6.03515,-0.0876 1.53216,2.71381 1.5776,2.51202 1.31391,-5.8347 -0.21608,-6.83974 -0.67106,-9.08529 -2.17812,-10.75 -5.92763,-6.54775 -10.24988,2.24913 -7.94816,16.17654 0.66388,4.01708 0.99241,4.07572 2.77722,0.49575 z M 296,667.14913 c 0,-0.46798 -2.29736,-3.88561 -5.10525,-7.59475 -3.61908,-4.78069 -5.41604,-6.43309 -6.17287,-5.67626 -1.45656,1.45656 0.22714,4.95281 4.84858,10.06819 3.37329,3.73383 6.42954,5.25627 6.42954,3.20282 z M 432,659 c 1.64444,-1.64444 2,-3.33333 2,-9.5 0,-4.125 -0.41107,-7.5 -0.91349,-7.5 -0.50242,0 -2.32463,1.9125 -4.04935,4.25 l -3.13586,4.25 2.54935,0.31642 c 3.27275,0.40621 3.30271,2.94665 0.0494,4.18358 -2.70347,1.02786 -3.20827,2.89173 -1.3,4.8 1.6541,1.6541 2.48426,1.51574 4.8,-0.8 z m -153.57113,-1.87904 c -0.37733,-0.89153 -0.90565,-2.63346 -1.17404,-3.87096 -0.42619,-1.96508 -0.0841,-2.25 2.70192,-2.25 2.42325,0 3.11219,-0.39483 2.86657,-1.64282 -0.17782,-0.90355 -1.22332,-2.12301 -2.32332,-2.70992 -1.1,-0.58691 -3.21928,-1.87265 -4.70951,-2.85719 -3.69472,-2.44097 -5.44214,-2.25136 -7.44672,0.80803 -1.4025,2.14048 -1.48389,2.94789 -0.46207,4.58408 0.72311,1.15789 0.97323,3.20185 0.59983,4.90191 -0.35224,1.60375 -0.49219,2.92269 -0.31099,2.93097 0.18121,0.008 2.10822,0.63414 4.28225,1.39079 4.58088,1.59435 6.97669,1.07923 5.97608,-1.28489 z M 266,650.02305 c 0,-1.90099 -4.82754,-4.09402 -14.10703,-6.40845 C 237.49752,640.02417 236,639.82396 236,641.48982 c 0,2.19633 2.7074,3.21493 13.55491,5.09974 5.4698,0.9504 11.07009,2.31354 12.44509,3.02918 3.04759,1.58619 4,1.68246 4,0.40431 z M 232.69731,645.75 c -0.29471,-1.2375 -0.83211,-3.19542 -1.19422,-4.35092 C 230.66652,638.72955 233.2587,636 236.63045,636 c 3.50048,0 2.49542,-1.07859 -7.4079,-7.94985 -8.92333,-6.19133 -23.03451,-17.95312 -23.1553,-19.30015 -0.037,-0.4125 0.52356,-0.75 1.24566,-0.75 0.7221,0 2.56582,-1.30776 4.09716,-2.90613 l 2.78426,-2.90614 -2.79923,-4.77651 c -1.89032,-3.22559 -2.40891,-4.90662 -1.59716,-5.1772 1.90951,-0.6365 1.44346,-4.23454 -0.54794,-4.23028 -3.01133,0.006 -8.16698,3.81731 -8.85091,6.54229 -0.97269,3.87552 1.31721,7.45397 4.76989,7.45397 1.55706,0 2.83102,0.45 2.83102,1 0,0.55 -0.51289,1 -1.13976,1 -0.62686,0 -1.69731,0.7625 -2.37876,1.69445 -1.16315,1.59069 -1.40124,1.58814 -3.88849,-0.0416 -3.4396,-2.25372 -5.18081,-1.20973 -2.86059,1.71514 2.00606,2.52884 15.83711,14.76657 21.5688,19.08411 4.72575,3.55978 4.8011,7.16678 0.1988,9.51632 -1.65,0.84235 -3.19785,1.65439 -3.43967,1.80454 -0.931,0.57808 14.40866,10.18709 16.30625,10.21449 0.47661,0.007 0.62544,-0.99999 0.33073,-2.23749 z M 214,628.10701 C 214,626.69669 191.2149,607 189.58345,607 c -2.54222,0 -2.80943,1.95216 -0.72292,5.28132 C 192.8832,618.69971 214,631.99307 214,628.10701 Z m 6.44657,-16.42562 C 223.80463,605.95129 224.83056,601 222.6598,601 c -1.85682,0 -8.26278,5.38965 -9.78369,8.23149 -0.83587,1.56184 -0.59093,2.44317 1.21253,4.36286 1.24299,1.32311 2.61258,2.40565 3.04352,2.40565 0.43094,0 1.92243,-1.94338 3.31441,-4.31861 z m -29.01186,-8.63647 c 3.79974,-2.61429 4.35572,-3.49324 4.82105,-7.62164 0.64048,-5.68237 4.66449,-10.21612 9.79382,-11.03446 4.36183,-0.69589 8.98791,1.03855 9.66382,3.62322 0.28592,1.09338 1.16473,1.98796 1.95289,1.98796 2.07492,0 7.33371,-2.8822 7.33371,-4.01941 0,-0.53242 -1.82757,-2.29193 -4.06127,-3.91002 -5.78659,-4.19177 -13.08409,-4.9829 -19.56811,-2.12137 -5.29286,2.33584 -11.70209,7.96332 -13.95304,12.25114 C 186.06555,594.77582 185.37601,606 186.56982,606 c 0.31341,0 2.50261,-1.32979 4.86489,-2.95508 z m 39.56429,-9.08471 c 6.86432,-2.22188 12.91267,-4.47188 13.44079,-5 1.32914,-1.32914 4.91749,-1.20293 6.34354,0.22312 1.6338,1.6338 2.13619,0.81711 1.50825,-2.45184 -0.51942,-2.70398 -0.65137,-2.7534 -5.6617,-2.1203 -4.12954,0.5218 -31.14698,9.59761 -32.48002,10.91082 -0.77333,0.76184 1.07467,2.47799 2.66837,2.47799 0.9351,0 7.31645,-1.8179 14.18077,-4.03979 z m 32.501,-4.94084 c 5.36876,-3.18031 10.02882,-6.85655 9.39166,-7.40892 -0.21541,-0.18675 -1.40416,-0.86633 -2.64166,-1.51018 -1.74762,-0.90926 -2.25,-2.03996 -2.25,-5.06403 0,-2.25469 0.68144,-4.57483 1.61905,-5.51243 3.52657,-3.52658 0.36087,-2.14907 -8.41006,3.65951 -9.88196,6.54437 -11.88865,9.54197 -5.59764,8.36177 l 3.61135,-0.67749 -0.44951,3.8162 c -0.24723,2.09891 -0.79548,4.6037 -1.21834,5.5662 -1.07385,2.4443 0.17931,2.1849 5.94515,-1.23063 z m 15.0896,-17.07475 C 282.11426,569.76626 295,556.36545 295,554.87827 295,554.39522 294.07243,554 292.93873,554 c -2.3316,0 -21.2105,17.75125 -20.35355,19.13782 0.83148,1.34537 2.40188,1.0333 6.00442,-1.1932 z m 26.64732,-20.98594 5.23028,-5.04133 -2.4836,-1.23371 c -3.0893,-1.53458 -3.60096,-4.58911 -1.46168,-8.72602 1.18825,-2.29783 1.27428,-2.96479 0.31068,-2.40865 -11.34863,6.54974 -19.45669,17.30756 -10.75945,14.27568 4.01473,-1.39954 4.62957,-0.52147 2.60607,3.72183 C 296.63,555.84375 296.62383,556 298.50332,556 c 0.82682,0 3.85694,-2.2686 6.7336,-5.04132 z M 316.68384,533.75 C 320.16928,530.0676 322,526.88531 322,524.50904 c 0,-1.41322 -0.25346,-1.44492 -1.96543,-0.24581 -3.49415,2.4474 -10.19277,10.67178 -9.54528,11.71944 1.10939,1.79503 3.04135,1.09871 6.19455,-2.23267 z m 119.77522,-22.5 c 7.09102,-29.7542 7.50825,-31.08791 10.4348,-33.3554 13.43423,-10.40883 26.0857,-19.29524 32.55299,-22.86526 4.2875,-2.36675 9.22755,-5.56058 10.9779,-7.09741 3.49407,-3.06784 9.07829,-12.50412 7.84792,-13.26152 -1.07977,-0.66468 -37.51128,11.60069 -40.739,13.71557 -1.45268,0.95183 -4.99609,3.86317 -7.87425,6.46965 -7.19379,6.51472 -17.34732,13.63731 -26.42159,18.53444 l -7.61562,4.10993 -4.1237,12 c -2.26803,6.6 -5.55803,14.79967 -7.3111,18.22148 -1.75308,3.42182 -3.18741,7.08741 -3.18741,8.14576 0,2.04876 6.40475,6.63189 13.5,9.66037 4.56281,1.94756 14.44433,5.24494 16.12612,5.38117 0.65732,0.0533 3.08559,-8.13078 5.83294,-19.65878 z M 403.46278,495.5 c 2.55582,-7.15 5.32872,-14.8348 6.162,-17.07733 1.30477,-3.51141 2.5116,-4.6103 8.69513,-7.91738 10.96478,-5.86419 15.3833,-9.1223 25.28775,-18.64656 6.36608,-6.12171 10.8659,-9.53563 14.94863,-11.3412 11.10999,-4.91337 16.41244,-11.22742 16.39054,-19.51753 l -0.009,-3.5 -2.46447,4 c -1.35545,2.2 -2.73848,5.44647 -3.07339,7.21437 -0.33492,1.76791 -1.24716,3.74406 -2.02722,4.39144 -1.14447,0.94983 -1.29668,0.86018 -0.7884,-0.46437 0.34643,-0.90279 0.42286,-1.64144 0.16984,-1.64144 -2.45349,0 -28.56132,11.54669 -36.75394,16.25514 -5.775,3.31899 -12.41811,7.11662 -14.76247,8.43916 -3.44363,1.94268 -4.81727,3.62821 -7.15048,8.774 -2.04316,4.50608 -5.13053,8.64855 -10.55371,14.16042 l -7.66569,7.79106 1.95822,3.54011 c 1.07702,1.94706 2.50933,6.91511 3.1829,11.04011 1.99883,12.241 2.14675,12.14477 8.45401,-5.5 z M 326.43783,455.10059 C 327.15206,453.94494 323.93405,433 323.04227,433 c -1.46754,0 -4.29373,7.82141 -4.7936,13.26617 -0.42678,4.64867 -0.18144,6.15064 1.26596,7.75 1.84663,2.0405 5.93639,2.68111 6.9232,1.08442 z m 301.79788,311.86163 c -12.03368,-6.90116 -16.22103,-21.421 -9.77333,-33.88947 1.68096,-3.25062 8.25577,-9.35852 12.3567,-11.47919 3.31008,-1.71171 4.17496,-3.34595 4.1943,-7.92535 C 635.02074,711.9257 636.36472,706.675 638,702 c 3.49938,-10.00413 3.31258,-9 1.67431,-9 C 636.79896,693 634,688.49607 634,683.86921 c 0,-6.58967 1.89005,-15.91852 3.93969,-19.44536 1.53434,-2.64017 1.59444,-3.34048 0.42401,-4.94113 -2.3655,-3.23502 -1.09669,-18.30249 2.07694,-24.66418 1.41473,-2.8359 1.37934,-3.26262 -0.48814,-5.88525 C 636.45269,624.01826 626.94394,616.20532 613,606.78753 580.59198,584.89904 578.58374,581.53568 577.00288,546.5 c -1.58077,-35.03372 -2.05601,-37.85106 -11.55404,-68.49552 -3.57947,-11.5488 -4.90025,-23.95307 -2.7766,-26.07672 0.55326,-0.55326 2.4459,0.96022 4.78778,3.82865 2.13005,2.60897 9.14025,9.7888 15.57822,15.95517 14.27234,13.67024 15.57578,16.10474 18.09046,33.78842 2.01816,14.19208 6.58066,34.20234 7.99816,35.07841 0.49007,0.30288 1.78701,0.26631 2.88209,-0.0812 2.7627,-0.87685 2.558,-3.36613 -1.41166,-17.16719 C 604.37261,501.68907 603.44945,492.5 607.5,492.5 c 1.75867,0 2.15179,1.08598 3.25795,9 1.12104,8.02051 7.5819,34.17319 8.72457,35.31585 0.24546,0.24546 5.7498,-0.85019 12.23188,-2.43478 L 643.5,531.5 l -0.309,-4 c -0.2886,-3.73588 -1.7782,-10.68939 -7.43153,-34.69069 l -2.28258,-9.6907 -8.98844,-6.5705 c -4.94365,-3.61378 -11.74955,-8.75649 -15.12423,-11.42824 -3.37469,-2.67175 -9.23502,-6.04202 -13.02298,-7.48947 -8.51607,-3.25418 -13.17236,-6.99978 -16.17456,-13.0111 -2.67377,-5.35372 -4.0328,-14.96597 -2.27,-16.05545 0.63154,-0.39031 3.27565,-0.0109 5.87579,0.84303 6.258,2.05535 28.36882,6.78516 28.95921,6.19477 0.25501,-0.255 -0.0219,-2.72762 -0.61533,-5.49471 -1.17919,-5.49841 -0.31717,-12.29721 2.3766,-18.7443 l 1.56543,-3.74661 2.85219,5.94198 c 1.5687,3.2681 4.59306,7.60243 6.72081,9.63186 4.43679,4.23178 8.36382,6.04924 24.30186,11.24709 14.1041,4.59976 30.05467,12.48103 33.20916,16.40885 1.29668,1.61457 7.9826,6.8702 14.8576,11.67919 17.11073,11.96878 19.58131,14.0135 20.79074,17.20705 0.57654,1.52237 1.30218,11.31795 1.61254,21.76795 0.76495,25.75679 1.6357,28.24184 6.21949,17.75 1.38167,-3.1625 3.43361,-7.83395 4.55987,-10.38099 2.85764,-6.46255 8.86922,-13.53191 18.8738,-22.19481 C 760.27805,477.82339 766,468.46702 766,460.60377 c 0,-4.51959 -1.11905,-5.88443 -2.70031,-3.29341 -1.40275,2.29851 -5.65912,4.68964 -8.34788,4.68964 -1.47285,0 -3.6072,-1.06873 -4.91547,-2.46131 -2.30159,-2.44994 -2.30681,-2.51814 -1.12988,-14.75 1.13529,-11.79908 0.38319,-28.06058 -1.54476,-33.40001 -1.45796,-4.03781 4.89402,3.19979 11.61882,13.23875 7.4406,11.10752 10.76385,18.75792 12.05951,27.76198 1.14349,7.94651 -0.0665,13.47524 -4.57214,20.89087 -2.07845,3.42084 -3.94091,6.52542 -4.13879,6.89905 -0.19788,0.37363 2.0917,0.42632 5.08797,0.11707 8.97963,-0.92678 9.37821,-0.28049 4.28267,6.94418 -7.96758,11.29675 -11.20481,18.1508 -13.59302,28.77995 l -0.87663,3.90161 7.03609,5.1337 c 5.91387,4.3149 7.5171,5.0375 10.0519,4.53054 4.6125,-0.9225 10.85584,2.68339 17.75342,10.25362 5.84781,6.41807 6.05118,6.82167 5.59861,11.11047 -0.44797,4.24525 -0.25523,4.64853 4.18013,8.74614 5.20303,4.80683 7.82487,6.02828 9.45042,4.40273 2.21097,-2.21097 7.31841,-1.1458 13.2943,2.77257 7.3761,4.83647 13.25602,10.90614 14.25385,14.71383 0.61897,2.36197 1.69397,3.22628 5.67251,4.56072 l 4.90881,1.64647 3.7962,-4.31271 c 5.6797,-6.45248 11.3711,-8.84931 19.61292,-8.25961 15.18242,1.0863 25.15579,11.91311 25.12902,27.27939 -0.021,12.07099 -3.27922,16.62696 -16.93979,23.68715 -5.98658,3.09404 -6.53315,3.65631 -7.29396,7.50348 -1.00234,5.06846 -5.84086,10.32604 -15.41208,16.74687 -9.1128,6.11331 -10.71797,6.02466 -15.67016,-0.86545 -1.36329,-1.89678 -1.52532,-1.89043 -10.02265,0.39311 -7.11423,1.91186 -8.43414,2.56546 -7.48652,3.70727 0.89796,1.08198 0.63511,1.93474 -1.19767,3.88565 -3.07068,3.26859 -18.51839,11.67081 -20.68868,11.25285 -0.92753,-0.17863 -2.65928,-1.76839 -3.84832,-3.53281 -2.00962,-2.98208 -2.26717,-3.08724 -3.65667,-1.49308 -2.68418,3.07957 -3.89416,6.27773 -4.1756,11.03671 -0.53111,8.9807 -6.24436,20.3412 -11.17185,22.21463 -2.06848,0.78643 -10.3231,11.63366 -9.30591,12.2287 0.22087,0.1292 1.30159,0.72714 2.40159,1.32875 2.80269,1.53283 6.30225,6.96095 7.61223,11.80721 3.8893,14.38847 -6.1497,29.19117 -20.61035,30.39036 -7.15437,0.5933 -11.52125,-0.31533 -15.94571,-3.31784 -4.29927,-2.91757 -6.33572,-3.01512 -17.34035,-0.8307 -7.03174,1.3958 -8.59331,2.07853 -10.32884,4.51586 -2.84862,4.00053 -6.24722,5.50677 -15.25063,6.75903 -13.07578,1.81868 -16.3605,1.51195 -19.71327,-1.84083 -1.6077,-1.60769 -2.92308,-3.59687 -2.92308,-4.4204 0,-1.10291 -1.69132,-1.67846 -6.42073,-2.18493 -3.5314,-0.37819 -6.89359,-0.39536 -7.47153,-0.0382 -0.57794,0.35719 -1.89512,2.55816 -2.92706,4.89104 -3.5784,8.08956 -12.77734,13.62344 -22.68068,13.6442 -4.86017,0.0102 -7.00007,-0.56094 -11.26429,-3.00643 z m 19.54641,-2.5129 C 651.85001,762.75265 658,757.31252 658,755.41082 c 0,-2.34261 -2.99025,-2.2899 -5.83386,0.10283 -6.53982,5.5029 -12.8313,5.89569 -19.80313,1.23635 -5.7778,-3.86136 -8.09636,-8.97442 -6.93668,-15.29728 0.55405,-3.02079 2.01019,-5.15638 6.17616,-9.058 4.28091,-4.00925 5.17091,-5.33789 4.14562,-6.18881 -2.38226,-1.9771 -9.34393,2.08732 -12.73557,7.43536 -5.58826,8.81179 -3.59808,21.83731 4.22823,27.67319 6.34264,4.72955 13.93859,5.88879 20.54135,3.13486 z m -1.32917,-9.60984 C 648.99686,753.6804 649.9955,751 647.88342,751 c -1.23431,0 -0.80511,-2.73361 1.20423,-7.66983 1.05801,-2.59917 1.05421,-3.45431 -0.0211,-4.75 -1.80143,-2.1706 -2.55812,-1.99142 -3.88458,0.91983 -1.65013,3.62165 -5.39872,3.29632 -8.64194,-0.75 l -2.60494,-3.25 -2.46257,3 c -7.52767,9.17051 3.74038,21.4608 14.98045,16.33948 z m 53.72933,-0.97031 c 4.84974,-0.62195 8.81772,-1.4702 8.81772,-1.88499 0,-0.41479 -1.125,-1.49129 -2.5,-2.39222 -1.50194,-0.98411 -2.5,-2.58365 -2.5,-4.0066 0,-1.69246 0.71361,-2.54765 2.5,-2.996 1.375,-0.34511 2.5,-1.21947 2.5,-1.94304 0,-1.01391 -1.89174,-1.22254 -8.25,-0.90984 -10.05521,0.49451 -11.99403,0.98033 -9.5,2.38046 0.9625,0.54034 1.75,1.88053 1.75,2.9782 0,2.59891 -4.33693,6.90486 -6.95455,6.90486 -2.49868,0 -2.71334,1.67881 -0.29545,2.31067 3.03087,0.79205 5.372,0.72044 14.43228,-0.4415 z m 66.63588,-7.46584 c 7.35243,-3.66388 10.56094,-9.26518 10.42544,-18.20038 -0.0829,-5.46546 -0.56157,-7.19261 -2.92136,-10.54061 -3.38541,-4.8031 -4.83202,-5.44684 -6.25694,-2.78435 -0.84093,1.57129 -0.61437,2.77196 1.05787,5.60619 2.72235,4.61404 2.10737,10.21371 -1.66486,15.15936 -3.01662,3.95499 -7.0599,6.0024 -13.61046,6.89197 -10.21674,1.38743 -11.17094,2.28701 -5.09785,4.80601 5.74669,2.38361 12.06001,2.05579 18.06816,-0.93819 z m -85.99861,-0.58601 c -0.46208,-3.1562 -4.69537,-4.02931 -16.31955,-3.36586 -7.73839,0.44166 -10.2827,0.9507 -11.25,2.25077 -0.6875,0.92402 -1.25,2.04402 -1.25,2.4889 0,0.44488 6.5563,0.80887 14.56955,0.80887 14.40696,0 14.56599,-0.0244 14.25,-2.18268 z m 7.70752,0.13888 c 0.35481,-0.5741 0.0919,-1.71045 -0.58436,-2.52523 -1.08026,-1.30163 -1.4548,-1.27751 -3.08609,0.19879 -1.02114,0.92412 -1.85662,2.06047 -1.85662,2.52523 0,1.21528 4.75891,1.04411 5.52707,-0.19879 z m 41.34729,-1.50203 c 6.9441,-1.40021 14.29393,-3.04068 16.33296,-3.6455 3.27389,-0.97111 3.58387,-1.33033 2.65142,-3.07262 -1.2521,-2.33956 -1.97575,-2.26923 -22.12903,2.15085 C 711.70451,743.18228 711,743.43632 711,745.55902 c 0,2.08751 4.28686,1.83657 18.87436,-1.10485 z m -72.35588,-6.48407 c 0.8749,-1.41561 -4.10604,-9.679 -6.65721,-11.04435 -2.56545,-1.37298 -4.90671,0.33783 -3.33879,2.43974 0.53763,0.72074 2.32752,3.16627 3.97752,5.43452 3.00719,4.13397 4.82953,5.09384 6.01848,3.17009 z m 24.67933,-1.7201 c 3.82888,-2.53421 5.07097,-2.77754 15.82883,-3.10091 l 11.67391,-0.3509 3.45817,3.0363 3.45816,3.03631 8.44156,-1.6854 8.44156,-1.6854 0.56145,-7 c 1.00625,-12.54547 6.1456,-18.35614 19.85852,-22.45248 5.03802,-1.50496 5.65154,-2.03725 8.70589,-7.55329 2.90679,-5.24955 3.11794,-6.11985 1.83003,-7.54297 -1.97425,-2.18152 -1.82974,-6.55154 0.43423,-13.13188 C 769.27183,665.0837 772.91912,661 779.91205,661 c 4.41023,0 4.76063,-0.21567 7.71713,-4.75 1.70342,-2.6125 4.01083,-6.55 5.12757,-8.75 3.48835,-6.87213 8.58956,-9.94171 18.41947,-11.08365 4.90399,-0.56969 5.63032,-0.37394 9.21128,2.48259 2.13813,1.70558 4.16313,3.09855 4.5,3.09548 2.94116,-0.0268 8.3128,-2.50017 9.25557,-4.26176 2.23559,-4.17722 11.25762,-12.83126 17.03692,-16.342 3.201,-1.94451 5.81431,-3.84039 5.80734,-4.21306 -0.007,-0.37268 -1.35696,-3.32851 -3,-6.56852 C 852.3443,607.36907 851,603.91428 851,602.93176 c 0,-1.30862 -2.13095,-2.60817 -7.96774,-4.85907 C 838.65,596.38271 834.66975,595 834.18725,595 c -0.4825,0 -1.69176,0.9 -2.68725,2 -0.99549,1.1 -3.02046,2 -4.49995,2 -3.13499,0 -13.02948,-6.1424 -19.49565,-12.10271 -3.99889,-3.68605 -4.5044,-4.63521 -4.5044,-8.4577 0,-3.85713 -0.44276,-4.66547 -4.25,-7.75915 -6.76841,-5.49987 -10.98289,-7.67269 -14.88999,-7.6767 -2.72995,-0.003 -5.10507,-1.09334 -9.5,-4.36192 -8.45677,-6.28942 -10.13448,-8.46793 -13.15464,-17.08139 -1.48796,-4.24361 -3.15537,-7.64969 -3.70537,-7.56908 -0.55,0.0806 -1.52478,2.98994 -2.16618,6.46517 -0.64139,3.47523 -1.93988,7.81479 -2.88553,9.64347 -0.94564,1.82868 -8.86842,10.63129 -17.60616,19.56135 -22.04705,22.53232 -23.87828,27.03912 -17.93022,44.12753 2.90052,8.33301 17.07259,35.10048 30.73836,58.05701 l 7.34937,12.34588 -2.08789,2.93218 c -3.70863,5.20829 -18.14371,15.92942 -28.46157,21.13878 -12.91828,6.52228 -48.16783,14.62119 -50.09131,11.50893 -0.35283,-0.57089 -1.0055,-6.65034 -1.45038,-13.5099 -0.49125,-7.57441 -1.83744,-16.57978 -3.42819,-22.93292 -2.56742,-10.25374 -8.83597,-26.81258 -10.55163,-27.87291 -0.47748,-0.2951 -1.57275,1.14981 -2.43393,3.2109 -1.2537,3.00054 -1.33557,4.30323 -0.41075,6.53594 0.63526,1.53367 1.21375,7.01847 1.28552,12.18845 0.12763,9.19413 0.0593,9.48861 -3.12145,13.44815 l -3.25193,4.04818 1.50193,5.76633 c 1.89445,7.27326 1.82898,10.70915 -0.31039,16.29056 l -1.70357,4.44444 4.61874,4.61873 c 2.54031,2.54031 5.15751,6.25125 5.81602,8.24654 1.29427,3.92169 2.16259,4.24404 12.35258,4.58582 3.70474,0.12426 5.70031,-0.45475 8.92637,-2.58996 z m 79.84808,1.4682 C 765.12743,735.28987 767,731.47388 767,727.62251 c 0,-3.74639 -0.0865,-3.85417 -1.82874,-2.2775 -2.11035,1.90984 -10.15576,2.27049 -11.89312,0.53313 -0.61702,-0.61702 -0.84776,-1.85452 -0.51276,-2.75 0.51514,-1.37702 0.36398,-1.42901 -0.98004,-0.33712 -4.17647,3.39302 -2.38676,10.65204 3.51321,14.24946 3.69939,2.25566 4.62673,2.3488 6.74734,0.67772 z M 642.37732,734.25 c 1.5601,-5.33134 4.70787,-20.12491 5.23087,-24.58349 C 648.2322,704.34684 646.63936,696 645.0002,696 c -1.49452,0 -3.88611,9.50383 -5.69458,22.62941 -1.32405,9.60967 -1.43522,12.79072 -0.51744,14.80503 1.35614,2.97641 2.85702,3.31745 3.58914,0.81556 z m 102.04089,-0.85699 C 745.54395,732.96102 746,731.4574 746,728.17773 c 0,-4.34686 0.34038,-4.92425 6,-10.17773 7.09953,-6.59007 7.69145,-8.5399 2.28456,-7.52556 -8.61377,1.61595 -14.49563,7.10704 -16.33845,15.25299 -1.59151,7.03502 0.78383,9.84838 6.4721,7.66558 z m 20.26875,-17.76197 c 3.77358,-7.44679 9.31374,-22.23354 9.30807,-24.84334 -0.005,-2.19528 -0.10635,-2.1665 -2.51455,0.7123 -1.38027,1.65 -3.58536,4.8 -4.90019,7 -3.04812,5.10018 -8.88374,22.19998 -8.04132,23.56305 0.99213,1.60531 3.2972,-0.80623 6.14799,-6.43201 z m -74.32604,-2.11827 c 19.97198,-3.27343 35.63587,-9.54085 47.07357,-18.83503 8.1831,-6.64951 10.68096,-9.70907 9.94205,-12.17774 -0.32925,-1.1 -4.4593,-8.75 -9.1779,-17 -12.66606,-22.14534 -24.82504,-46.45952 -27.28742,-54.56637 -2.63321,-8.66929 -2.17171,-14.80144 1.72143,-22.87304 2.01857,-4.18506 6.59528,-9.45785 18.50145,-21.31532 8.70069,-8.6651 16.4932,-17.05765 17.3167,-18.65012 1.61354,-3.12024 2.89572,-10.73408 4.49367,-26.68413 1.23796,-12.35682 3.7714,-20.79113 8.59008,-28.598 2.01765,-3.26885 3.40664,-6.20517 3.08664,-6.52516 -1.29382,-1.29382 -14.08434,6.21877 -19.06139,11.19582 -4.12985,4.12985 -6.81185,8.40676 -12.3208,19.64765 -8.01112,16.3465 -9.41885,18.00748 -29.08426,34.31656 -30.93096,25.65191 -58.05283,42.82694 -67.86905,42.97831 -9.63559,0.14859 -23.53745,-9.73912 -33.36198,-23.72875 -4.37205,-6.22557 -6.85447,-12.10003 -5.63045,-13.32404 0.26597,-0.26597 3.69941,3.79498 7.62988,9.02433 8.08261,10.75363 15.28436,17.5096 22.5232,21.12906 10.56995,5.28503 16.10296,2.93253 48.95312,-20.81362 14.76451,-10.67271 29.93226,-22.95516 36.18208,-29.29929 l 5.08153,-5.15823 -0.77632,-6.37783 c -0.42698,-3.50781 -1.0967,-15.07791 -1.48826,-25.71135 l -0.71193,-19.33352 -6.59328,-5.28194 c -9.96012,-7.97913 -21.00033,-15.60663 -25.53691,-17.64301 -3.32996,-1.49475 -4.29064,-1.58796 -5.36459,-0.52048 -2.96464,2.94678 2.16127,10.63544 15.05822,22.58672 3.7125,3.44029 6.75,7.00113 6.75,7.913 0,0.91187 -1.60604,2.52285 -3.56897,3.57996 -4.47216,2.40842 -4.87047,3.22402 -6.36467,13.03279 -0.67027,4.4 -2.11327,9.88922 -3.20668,12.19826 -3.80503,8.03546 -15.22496,13.35549 -44.44189,20.7035 -9.85478,2.47846 -22.36063,5.87698 -27.79078,7.55227 -11.23432,3.46596 -12.35845,3.63223 -10.65147,1.57545 0.97606,-1.17609 0.60079,-4.03257 -1.87424,-14.26621 -1.70206,-7.03763 -3.78517,-18.1884 -4.62913,-24.77948 -2.10991,-16.47778 -4.93944,-22.24517 -14.73414,-30.03246 -3.98092,-3.16503 -8.92553,-7.35269 -10.98803,-9.30591 -2.0625,-1.95322 -3.75,-3.06743 -3.75,-2.47601 0,0.59141 1.16212,4.62024 2.58249,8.95295 4.2735,13.03591 9.26628,33.58944 10.32348,42.49814 0.54692,4.60872 1.27898,15.1295 1.62681,23.3795 1.04012,24.67025 1.94491,30.7401 5.60615,37.60929 3.82008,7.1672 7.99948,10.86053 28.2829,24.99353 33.79907,23.55041 50.39019,45.71357 58.52328,78.17807 1.87552,7.48646 4.98229,27.21102 5.03537,31.96911 0.0234,2.09845 0.16111,2.10163 11.38044,0.26277 z m -41.04146,-23.36009 c 0.31321,-1.56602 0.88027,-6.27719 1.26015,-10.46927 C 651.3362,671.33418 649.80522,667 646.09939,667 c -2.87604,0 -3.97586,2.08214 -5.05929,9.57802 -1.41597,9.79657 -1.47151,9.57656 1.9256,7.62688 2.69926,-1.54916 3.10723,-1.56054 4.54109,-0.12668 1.24537,1.24537 1.3573,2.14905 0.53431,4.31369 -1.27068,3.34214 -1.31631,4.60809 -0.1661,4.60809 0.48125,0 1.13126,-1.28129 1.44446,-2.84732 z m 134.08774,-7.34226 2.51413,-5.68957 -3.21066,-0.31043 C 779.70587,676.5199 779.46794,676.21146 779,672 c -0.79458,-7.15119 -2.99354,-5.84057 -6.71125,4 -1.76619,4.675 -3.22869,9.30097 -3.25,10.27994 -0.0351,1.61129 0.24153,1.57272 2.91944,-0.40715 3.24664,-2.40034 5.33786,-1.66609 6.60242,2.31818 0.82893,2.61171 1.78297,1.55256 4.84659,-5.38055 z M 790.62942,665.75 c 4.91274,-5.28382 9.65503,-11.79888 9.0377,-12.41621 -1.55601,-1.55602 -5.78671,1.2433 -11.00707,7.28302 -4.30499,4.98067 -5.44722,6.9021 -4.4711,7.52113 2.20373,1.39755 3.2981,0.99179 6.44047,-2.38794 z m 21.82353,-6.91052 c 2.73732,-1.2472 3.05546,-1.90014 1.65153,-3.38948 -0.52122,-0.55292 -0.52726,-1.91052 -0.0145,-3.24803 0.76534,-1.99619 1.34267,-2.21142 4.39552,-1.6387 2.24493,0.42115 3.51446,0.2718 3.51446,-0.41344 0,-0.59001 1.9125,-1.56442 4.25,-2.16537 10.85068,-2.78958 14.75,-4.11466 14.75,-5.01239 0,-1.5602 -5.25651,-1.12635 -11.8417,0.97736 C 818.54564,647.33976 816.3398,647.50344 815,645 c -0.99961,-1.86779 -1.71165,-2.0912 -4.8361,-1.51732 -4.66247,0.85636 -5.84673,1.98964 -4.17902,3.9991 1.96063,2.36241 0.42368,3.01594 -2.53446,1.07769 C 800.91852,646.90051 798,647.03364 798,648.8081 c 0,1.32982 4.77888,3.21398 6.48815,2.55807 1.78773,-0.68601 1.83852,-0.35556 0.49035,3.19037 -1.79999,4.73434 1.86923,6.83685 7.47445,4.28294 z m -165.40273,-6.64319 c 0.89657,-2.39468 2.02288,-3.46091 4.09335,-3.875 C 652.71461,648.00708 654,647.42377 654,647.02504 654,645.79486 648.04114,638 647.10072,638 c -1.53831,0 -2.23382,3.22516 -2.69565,12.5 -0.45042,9.0456 -0.17305,9.22347 2.64515,1.69629 z m 3.32035,3.57801 c 0.71976,-1.14105 0.62114,-2.07936 -0.34029,-3.23781 -1.61914,-1.95095 -2.99037,-0.45153 -3.01497,3.29684 -0.0168,2.55889 1.72323,2.52828 3.35526,-0.059 z m 207.72748,-12.91925 6.76753,-5.14495 -3.17587,-2.14022 c -4.14928,-2.7962 -4.43212,-4.90774 -1.22129,-9.11737 3.53937,-4.64034 1.4342,-4.49586 -6.06338,0.41615 -8.03547,5.2644 -13.37683,10.91271 -11.44736,12.10518 0.85567,0.52884 2.18827,0.48324 3.30236,-0.11301 3.79227,-2.02956 6.45658,3.10303 2.98996,5.75992 -1.52995,1.17259 -1.56138,1.46745 -0.25,2.34493 2.06798,1.38375 1.58215,1.60325 9.09805,-4.11063 z m 11.79414,-15.5782 c 11.58395,-9.75654 19.19197,-17.60597 17.87481,-18.44201 -3.03319,-1.92528 -5.58865,-0.55351 -12.88218,6.91516 C 866.27429,624.56729 863,628.6681 863,630.63486 c 0,2.13176 0.88763,1.69929 6.89219,-3.35801 z m 7.24703,-1.24358 C 880.21135,623.47392 878.26804,623.4437 875,626 c -1.375,1.07554 -1.98735,1.96553 -1.36078,1.97776 0.62656,0.0122 2.20156,-0.86279 3.5,-1.94449 z M 890.75,616.69334 c 1.2375,-1.12308 2.25,-2.95911 2.25,-4.08006 0,-1.6659 -0.9131,-1.13872 -5,2.88672 -2.75,2.70865 -5,5.33099 -5,5.82742 0,1.03238 4.41538,-1.60778 7.75,-4.63408 z m -18.51894,-2.89588 c 7.64576,-6.01551 9.12972,-10.03017 6.8445,-18.51685 C 877.96505,591.15649 875.07309,589 870.65295,589 c -4.26008,0 -6.2328,4.44396 -3.11964,7.02765 1.36097,1.1295 1.29382,1.52746 -0.59743,3.5406 -1.6452,1.75124 -1.97707,2.96773 -1.45637,5.33844 0.3709,1.68871 1.16262,3.37213 1.75938,3.74095 1.71754,1.0615 4.76111,-3.54077 4.76111,-7.19941 0,-3.98216 1.49137,-5.26714 2.94997,-2.54171 0.73472,1.37283 0.73234,2.79888 -0.008,4.74591 C 873.67281,606.99078 867.27252,615 865.87403,615 c -0.54563,0 -0.72658,-0.42957 -0.40209,-0.9546 C 865.96487,613.24783 859.48521,603 858.48798,603 c -0.17842,0 -1.03621,-0.27314 -1.90619,-0.60699 -2.32434,-0.89193 -1.99827,1.8516 0.89978,7.57062 4.37183,8.6274 7.59272,9.4646 14.74949,3.83383 z m 20.83015,-8.91183 c 1.30443,-2.43735 0.4474,-10.01621 -1.56872,-13.87246 -5.0579,-9.67427 -19.39046,-14.66143 -28.90228,-10.05684 -2.52033,1.22007 -5.5088,3.39601 -6.64104,4.83542 l -2.05861,2.6171 2.29541,1.73142 c 2.24158,1.69084 2.36031,1.65269 5.06364,-1.62692 4.5212,-5.48501 12.76519,-5.89611 18.66609,-0.93083 2.24554,1.8895 3.12633,3.65662 3.59377,7.21021 1.19916,9.11619 1.57445,10.20727 3.51097,10.20727 1.02384,0 2.13964,0.45 2.47956,1 0.98444,1.59286 2.33923,1.16892 3.56121,-1.11437 z M 863,595.6 c 0,-2.06285 -0.47774,-2.4 -3.40073,-2.4 -3.88539,0 -19.05851,-4.18198 -26.05625,-7.18156 C 827.90278,583.60075 827,583.53125 827,585.5147 c 0,2.1931 5.33004,5.10441 14.4931,7.91623 12.36953,3.79577 14.75827,4.38179 18.2569,4.47888 2.78894,0.0774 3.25,-0.25028 3.25,-2.30981 z m -38.02475,-7.1651 c -0.53639,-1.4108 -0.97525,-3.6608 -0.97525,-5 0,-2.17405 0.42852,-2.4349 4,-2.4349 2.2,0 4,-0.4271 4,-0.94911 0,-1.27045 -5.1947,-5.09342 -12.34785,-9.08723 -4.65423,-2.59859 -6.01885,-2.98836 -6.68558,-1.90957 -0.51098,0.82679 -0.19993,2.43515 0.79752,4.1237 1.55664,2.63518 1.52951,2.88078 -0.56442,5.10967 -1.20982,1.2878 -2.19967,2.65087 -2.19967,3.02906 0,1.08341 12.0653,9.68348 13.58526,9.68348 1.05229,0 1.14169,-0.58798 0.38999,-2.5651 z M 810,573 c 0,-0.55 -0.42344,-1 -0.94098,-1 -0.51754,0 -1.2191,0.45 -1.55902,1 -0.33992,0.55 0.0835,1 0.94098,1 C 809.29844,574 810,573.55 810,573 Z M 799.58996,561.39033 C 795.23944,557.32565 791.07694,554 790.33996,554 c -2.61851,0 -1.28365,4.28285 2.41004,7.73248 3.85243,3.59788 13.24068,8.63082 14.20784,7.61668 0.29819,-0.31268 -3.01736,-3.89415 -7.36788,-7.95883 z M 784,550.27164 c 1.77876,-3.82831 1.99333,-3.87931 5.07524,-1.20639 1.54689,1.34161 2.51739,1.65685 2.76978,0.89969 C 792.55569,547.83293 778.68722,535 775.6725,535 c -0.23476,0 -0.19858,2.025 0.0804,4.5 0.47475,4.21194 0.35486,4.50098 -1.87284,4.51531 -5.01496,0.0323 -5.18048,1.46191 -0.67783,5.85448 5.27974,5.15065 8.53504,5.2718 10.79778,0.40185 z m -10,-11.08051 c 0,-0.44488 -0.6475,-1.68238 -1.43888,-2.75 -1.35994,-1.83463 -1.53441,-1.847 -3.17995,-0.22547 -1.65275,1.62864 -1.61782,1.7649 0.68889,2.68661 3.09096,1.23509 3.92994,1.29675 3.92994,0.28886 z m -6.11296,-5.55502 c 0.89087,-1.07343 0.16092,-2.25895 -3.42754,-5.56668 -4.79091,-4.4161 -6.75721,-4.78005 -7.26546,-1.34478 -0.21939,1.48283 0.91245,2.92176 4,5.08527 5.07241,3.55435 5.22434,3.59581 6.693,1.82619 z M 663.31043,526.22535 C 671.51491,523.56742 679,518.96426 679,516.57663 c 0,-0.77595 -0.95946,-3.58563 -2.13214,-6.24372 -1.17268,-2.6581 -4.21018,-11.13277 -6.75,-18.8326 -4.18106,-12.67545 -4.93229,-14.18889 -7.94198,-16 -12.45324,-7.49383 -22.27781,-14.68208 -28.09047,-20.55266 l -6.74212,-6.80933 -12.4649,-3.51228 c -6.85569,-1.93175 -16.82105,-5.08914 -22.14523,-7.01642 -5.32418,-1.92727 -9.9356,-3.09108 -10.24761,-2.58624 -0.61461,0.99447 1.61106,5.80994 4.74469,10.2656 1.17508,1.67084 5.88189,4.75635 11.7401,7.69614 5.69773,2.85925 14.31731,8.47789 20.65415,13.46331 19.92497,15.67571 17.41038,11.6213 23.91013,38.55157 3.11951,12.925 5.87796,23.83915 6.12989,24.25367 0.55718,0.91675 3.44989,0.2748 13.64592,-3.02832 z m 21.06599,-22.77101 c 0.81825,-6.96206 3.02561,-12.43644 5.90304,-14.63989 l 2.20112,-1.68555 -8.10581,-8.31445 c -4.45819,-4.57295 -10.17974,-11.52536 -12.71457,-15.4498 -2.53482,-3.92444 -6.98284,-9.08531 -9.88448,-11.4686 -2.90165,-2.38328 -7.6153,-6.43078 -10.47479,-8.99445 -4.29558,-3.85118 -6.46781,-4.96722 -12.5,-6.42216 -4.01551,-0.96854 -8.91854,-2.57112 -10.89561,-3.56129 -3.52008,-1.76296 -9.20366,-7.40089 -10.15278,-10.07125 -0.2633,-0.74079 -0.83757,-1.01217 -1.27614,-0.60306 -1.01386,0.94574 1.2631,11.54846 3.1027,14.44784 0.76482,1.20543 4.20991,3.54946 7.65574,5.20895 4.07138,1.96074 7.0813,4.2326 8.59595,6.4881 5.18038,7.71424 12.81936,13.78964 26.03657,20.7073 3.50205,1.83291 7.02454,4.33555 7.82776,5.56142 0.80323,1.22588 3.03734,7.54194 4.96471,14.03571 3.95914,13.33929 7.21868,21.49996 8.31652,20.82146 0.40792,-0.25211 1.03795,-2.97924 1.40007,-6.06028 z m 76.05215,-50.02577 c 2.10473,-2.10473 1.97932,-5.8973 -0.4557,-13.78099 -3.31475,-10.73192 -4.18567,-9.61846 -5.55534,7.10242 l -0.67578,8.25 h 2.5577 c 1.40673,0 3.26484,-0.70714 4.12912,-1.57143 z M 359.5,446.03579 c -9.7576,-4.08567 -14.20448,-20.77321 -9.58682,-35.97587 1.18811,-3.9116 5.24224,-13.3495 9.00918,-20.97312 3.76694,-7.62362 7.87158,-17.30576 9.12142,-21.51585 1.24984,-4.2101 2.615,-7.29838 3.0337,-6.86284 0.41869,0.43554 1.50607,5.96689 2.4164,12.29189 0.93102,6.46882 3.31624,16.53505 5.45199,23.00884 5.32447,16.1393 5.55296,18.16744 2.98453,26.49116 -5.76097,18.66999 -13.83017,27.13685 -22.4304,23.53579 z m 7.59387,-5.12966 c 1.15163,-1.15163 3.72418,-5.52684 5.71679,-9.72271 5.06244,-10.66007 5.32339,-16.56813 1.33451,-30.21474 -1.68299,-5.75777 -3.36821,-12.23068 -3.74493,-14.38425 -0.64518,-3.68826 -0.77052,-3.80436 -2.15921,-2 -0.81084,1.05357 -4.41361,7.91509 -8.00615,15.24784 -6.39998,13.06304 -6.53253,13.49721 -6.56404,21.5 -0.0353,8.9619 2.1159,15.52785 6.39276,19.51236 2.89617,2.69819 4.38059,2.71118 7.03027,0.0615 z m 346.00796,4.1957 c -1.04399,-1.04399 -3.15004,-4.08149 -4.6801,-6.75 -1.53007,-2.66851 -4.50089,-7.74842 -6.60183,-11.28869 -3.43145,-5.78229 -3.8199,-7.13565 -3.8199,-13.3085 0,-4.25046 1.11202,-11.33132 2.91526,-18.56313 1.6034,-6.43033 3.4104,-16.38601 4.01556,-22.12373 1.03208,-9.78547 1.837,-12.91409 2.71883,-10.56778 0.34168,0.90912 6.93502,15.36024 19.15275,41.97851 3.98827,8.68907 4.63616,11.04623 5.0138,18.24125 0.28086,5.35114 -0.019,9.41106 -0.85108,11.5215 -4.01238,10.1772 -13.05121,15.67265 -17.86329,10.86057 z m 10.18984,-6.87596 c 0.98542,-1.67934 2.21613,-5.68896 2.73491,-8.91026 1.54618,-9.60093 -0.0768,-16.01813 -8.17325,-32.31561 l -7.20342,-14.5 -0.91723,4.5 c -0.50447,2.475 -2.08367,8.775 -3.50934,14 -3.78738,13.88062 -3.48815,16.95906 2.78915,28.69419 2.88491,5.39319 5.9047,10.56312 6.71066,11.48871 1.97726,2.27076 5.25159,0.99148 7.56852,-2.95703 z m -72.50111,-10.65962 c -10.00684,-7.64079 -14.14877,-19.74298 -10.14059,-29.62953 2.78483,-6.86905 12.65369,-23.0037 13.8241,-22.60111 0.60942,0.20963 0.8864,3.00759 0.68224,6.89172 -0.39973,7.60495 0.78205,9.07235 3.84369,4.77267 3.14423,-4.41567 4.32579,-2.86648 3.524,4.62047 -0.659,6.15363 -0.57855,6.47883 2.31974,9.37712 3.99243,3.99242 7.44267,3.91876 11.59646,-0.24759 5.25843,-5.27433 7.82801,-13.59459 7.35637,-23.81978 -0.4663,-10.10921 -2.11897,-13.52091 -11.83434,-24.43022 -15.49987,-17.40469 -17.89911,-26.30217 -10.88009,-40.34845 5.20459,-10.41532 5.75477,-9.93034 5.18634,4.57174 -0.69874,17.82647 0.8729,22.01769 13.93275,37.15556 6.71241,7.78046 9.09746,14.01358 9.16233,23.94493 0.0865,13.23575 -3.68243,23.39531 -10.57209,28.49856 -1.64202,1.21627 -4.86678,2.18522 -8.1897,2.46078 -7.99278,0.66282 -11.52241,-1.82025 -16.28475,-11.45618 l -3.7242,-7.53541 -2.38868,6.35423 c -1.68896,4.49287 -2.26216,7.70429 -1.95678,10.96296 0.42826,4.56988 4.60467,14.38948 8.77901,20.64128 2.79245,4.18218 1.40314,4.12191 -4.23581,-0.18375 z m -93.77726,-0.39911 c -4.40931,-4.40931 -5.61149,-9.85689 -4.2447,-19.23445 1.16024,-7.96038 4.37138,-16.97405 6.75046,-18.94851 1.0506,-0.87192 1.19724,0.0529 0.76473,4.82272 -0.67081,7.3978 0.64068,11.42822 5.71803,17.57252 5.14124,6.22161 5.1533,11.46546 0.0381,16.58065 -2.80713,2.80713 -5.67884,2.55487 -9.02663,-0.79293 z m 6.14514,-4.91714 c 0.42766,-4.72348 -1.62051,-10.7005 -3.30915,-9.65685 -0.97845,0.60471 -1.10401,5.85448 -0.219,9.15685 0.71162,2.65541 3.2998,3.0222 3.52815,0.5 z m -52.04837,5.35449 c -3.04441,-1.68739 -5.02939,-5.26337 -5.07463,-9.14208 -0.0275,-2.35722 1.10206,-4.1491 5.04302,-8 6.54907,-6.39943 7.92154,-9.1462 7.92154,-15.85373 0,-3.01986 0.43275,-5.7581 0.96166,-6.08498 0.52891,-0.32689 1.96471,1.33405 3.19067,3.69098 1.72087,3.3084 2.32509,6.48415 2.65045,13.93063 0.48661,11.13723 -0.60294,15.501 -4.95757,19.85563 -3.23828,3.23829 -5.973,3.68875 -9.73514,1.60355 z m 6.68709,-6.86008 c 0.57313,-0.69058 1.35201,-2.49058 1.73085,-4 C 520.0558,414.64156 519.85674,414 518.6765,414 517.08474,414 513,418.9683 513,420.90437 c 0,1.5021 3.51504,1.38489 4.79716,-0.15996 z M 423,425.40773 c 0,-0.32575 0.90804,-1.74666 2.01788,-3.15759 4.72372,-6.00524 5.98249,-17.7657 2.67784,-25.01861 -1.09778,-2.40938 -1.28787,-2.19812 -4.84115,5.38031 l -3.6985,7.88816 -0.12314,-6.5 c -0.0677,-3.575 -0.74129,-7.85 -1.49682,-9.5 l -1.37367,-3 -0.085,4 c -0.17231,8.11304 -7.04177,13.73021 -12.93446,10.57654 -2.71451,-1.45276 -7.48895,-8.47449 -11.45513,-16.84698 -2.80793,-5.92749 -3.18789,-7.74515 -3.18789,-15.25059 0,-7.59226 0.35132,-9.22721 3.22327,-15 1.7728,-3.56343 6.10907,-9.70477 9.63615,-13.64742 9.06825,-10.13668 10.07731,-13.30169 9.36282,-29.36704 C 410.40511,308.83403 410.33223,303 410.56028,303 c 1.06484,0 5.5731,8.45902 7.40258,13.88975 4.01933,11.9312 2.32976,16.5167 -11.46286,31.11025 -11.4631,12.12876 -13.44763,15.86281 -13.47804,25.36002 -0.0187,5.82823 0.46058,7.76536 3.18627,12.87929 3.6915,6.92595 11.57653,15.37593 13.01016,13.9423 2.23824,-2.23824 1.97868,-9.01507 -0.6931,-18.09567 -3.81406,-12.96287 -2.54427,-14.79359 2.94726,-4.24921 4.47221,8.58716 7.97596,13.16327 10.07862,13.16327 1.21095,0 4.6971,-7.14565 5.97641,-12.25 1.54024,-6.14545 4.14096,-1.49214 8.24375,14.75 2.21983,8.7879 2.39139,10.64489 1.41536,15.32045 -1.43692,6.8834 -4.47414,11.70465 -9.28784,14.7434 C 423.91434,426.07916 423,426.42331 423,425.40773 Z M 495.39545,408.25 c 2.94952,-9.73477 3.29522,-17.79573 0.91251,-21.27749 -2.66356,-3.89217 -3.34414,-3.9605 -7.7049,-0.77356 -3.72787,2.72442 -4.63212,2.95224 -9.88881,2.49142 -6.60625,-0.57913 -9.97134,-2.42403 -12.75825,-6.9947 -3.51862,-5.77069 -1.78432,-14.02675 4.51381,-21.4879 5.05448,-5.98785 1.68898,-4.61151 -4.69707,1.92088 -3.45,3.52907 -7.62033,9.10634 -9.26738,12.39392 -2.80609,5.6011 -2.98641,6.65351 -2.86403,16.71597 0.0718,5.9062 -0.22596,10.51818 -0.66176,10.24884 -1.70069,-1.05109 -3.98007,-10.1439 -3.98969,-15.91552 -0.023,-13.78765 8.19451,-26.66958 21.88952,-34.3145 C 484.77001,343.50324 489,336.96754 489,323.25948 c 0,-4.322 0.34898,-6.16183 1.08276,-5.70833 3.34449,2.06701 9.91724,25.22135 9.91724,34.93624 0,5.05385 -0.68565,7.71496 -3.62951,14.08654 l -3.6295,7.85559 3.35922,2.53524 c 4.74715,3.58272 7.96746,7.13385 9.06694,9.99837 1.11503,2.90504 -1.79542,11.97656 -6.0269,18.78508 -2.68722,4.32379 -4.70534,5.67204 -3.7448,2.50179 z M 487,370.52995 l 5.5,-10.97004 0.33848,-10.77996 C 493.06805,341.46852 492.82673,338 492.08848,338 491.48981,338 491,338.61454 491,339.36564 c 0,3.52921 -7.62957,15.86409 -14.48364,23.41599 -4.13619,4.55732 -7.51636,9.18916 -7.51636,10.29966 0,2.56007 2.56147,7.5711 4.22896,8.27316 0.69907,0.29432 2.84604,0.44748 4.77104,0.34034 3.40604,-0.18956 3.64765,-0.48928 9,-11.16484 z M 580.7669,402.75 C 576.23883,396.79316 575,393.3541 575,386.74079 c 0,-11.89528 4.77029,-13.2335 5.89733,-1.6544 0.48782,5.01175 0.99229,6.33517 2.64713,6.94441 2.6487,0.97514 8.49087,-1.05763 13.06368,-4.54548 8.66754,-6.61106 8.12273,-15.90688 -1.86943,-31.89682 C 587.66136,344.26297 586,340.87217 586,337.75295 c 0,-4.2913 -2.05302,-0.1138 -3.08097,6.26919 -1.5459,9.59919 0.1065,15.15855 6.2981,21.18935 L 594.13331,370 h -3.45029 c -2.77183,0 -4.18052,-0.80827 -7.16383,-4.11044 C 578.68817,360.5422 577,356.31974 577,349.58374 c 0,-6.22097 3.60783,-18.3038 7.93767,-26.58374 2.62295,-5.01587 2.92346,-5.27994 3.41388,-3 0.29576,1.375 0.71704,4.81504 0.93617,7.64453 0.21914,2.82949 1.48154,7.32949 2.80535,10 2.08984,4.2158 3.55458,5.52097 11.11827,9.90704 12.33663,7.15381 16.20751,10.56125 19.39216,17.07044 3.71071,7.58442 4.46797,19.36019 1.79863,27.96935 -1.76382,5.68866 -1.84306,5.77833 -2.1282,2.40864 -1.65997,-19.61706 -4.14534,-27.34118 -11.13963,-34.62015 -4.03435,-4.19856 -10.7638,-9.4568 -9.97845,-7.79694 0.23866,0.5044 1.97917,4.06709 3.86781,7.91709 2.71159,5.52758 3.50189,8.47242 3.75719,14 0.42524,9.20712 -1.03739,11.4575 -13.36384,20.56129 -5.30989,3.92167 -9.87843,7.98719 -10.15231,9.0345 -0.6996,2.67527 -1.65954,2.38804 -4.4978,-1.34579 z"
       id="path1" />
  </g>
</svg>
